<?xml version="1.0" encoding="UTF-8" standalone="no"?>
<!DOCTYPE svg PUBLIC "-//W3C//DTD SVG 1.1//EN"
 "http://www.w3.org/Graphics/SVG/1.1/DTD/svg11.dtd">
<!-- Generated by graphviz version 2.44.1 (20200629.0846)
 -->
<!-- Title: dependencies Pages: 1 -->
<svg width="756pt" height="211pt"
 viewBox="0.00 0.00 756.00 211.00" xmlns="http://www.w3.org/2000/svg" xmlns:xlink="http://www.w3.org/1999/xlink">
<g id="graph0" class="graph" transform="scale(1 1) rotate(0) translate(4 207)">
<title>dependencies</title>
<polygon fill="white" stroke="transparent" points="-4,4 -4,-207 752,-207 752,4 -4,4"/>
<text text-anchor="start" x="353.01" y="-42.4" font-family="sans-serif" font-weight="bold" font-size="14.00">Legend</text>
<polygon fill="#ffffb3" stroke="transparent" points="140,-10 140,-30 160,-30 160,-10 140,-10"/>
<text text-anchor="start" x="163.63" y="-15.4" font-family="sans-serif" font-size="14.00"> &#160;Declarations</text>
<polygon fill="#8dd3c7" stroke="transparent" points="253,-10 253,-30 273,-30 273,-10 253,-10"/>
<text text-anchor="start" x="276.73" y="-15.4" font-family="sans-serif" font-size="14.00"> &#160;Module</text>
<polygon fill="#80b1d3" stroke="transparent" points="339,-10 339,-30 359,-30 359,-10 339,-10"/>
<text text-anchor="start" x="362.78" y="-15.4" font-family="sans-serif" font-size="14.00"> &#160;Bootstrap</text>
<polygon fill="#fdb462" stroke="transparent" points="436,-10 436,-30 456,-30 456,-10 436,-10"/>
<text text-anchor="start" x="459.67" y="-15.4" font-family="sans-serif" font-size="14.00"> &#160;Providers</text>
<polygon fill="#fb8072" stroke="transparent" points="532,-10 532,-30 552,-30 552,-10 532,-10"/>
<text text-anchor="start" x="555.73" y="-15.4" font-family="sans-serif" font-size="14.00"> &#160;Exports</text>
<g id="clust1" class="cluster">
<title>cluster_OrdersModule</title>
<polygon fill="none" stroke="black" stroke-dasharray="1,5" points="8,-70 8,-195 740,-195 740,-70 8,-70"/>
</g>
<g id="clust2" class="cluster">
<title>cluster_OrdersModule_declarations</title>
<polygon fill="none" stroke="black" points="182,-78 182,-130 732,-130 732,-78 182,-78"/>
</g>
<g id="clust6" class="cluster">
<title>cluster_OrdersModule_imports</title>
<polygon fill="none" stroke="black" points="16,-78 16,-130 174,-130 174,-78 16,-78"/>
</g>
<!-- PageAddOrderComponent -->
<g id="node1" class="node">
<title>PageAddOrderComponent</title>
<polygon fill="#ffffb3" stroke="black" points="723.79,-122 558.21,-122 558.21,-86 723.79,-86 723.79,-122"/>
<text text-anchor="middle" x="641" y="-99.8" font-family="Times,serif" font-size="14.00">PageAddOrderComponent</text>
</g>
<!-- OrdersModule -->
<g id="node4" class="node">
<title>OrdersModule</title>
<polygon fill="#8dd3c7" stroke="black" points="414.64,-187 411.64,-191 390.64,-191 387.64,-187 317.36,-187 317.36,-151 414.64,-151 414.64,-187"/>
<text text-anchor="middle" x="366" y="-164.8" font-family="Times,serif" font-size="14.00">OrdersModule</text>
</g>
<!-- PageAddOrderComponent&#45;&gt;OrdersModule -->
<g id="edge1" class="edge">
<title>PageAddOrderComponent&#45;&gt;OrdersModule</title>
<path fill="none" stroke="black" d="M641,-122.11C641,-141.34 641,-169 641,-169 641,-169 424.85,-169 424.85,-169"/>
<polygon fill="black" stroke="black" points="424.85,-165.5 414.85,-169 424.85,-172.5 424.85,-165.5"/>
</g>
<!-- PageEditOrderComponent -->
<g id="node2" class="node">
<title>PageEditOrderComponent</title>
<polygon fill="#ffffb3" stroke="black" points="540.02,-122 375.98,-122 375.98,-86 540.02,-86 540.02,-122"/>
<text text-anchor="middle" x="458" y="-99.8" font-family="Times,serif" font-size="14.00">PageEditOrderComponent</text>
</g>
<!-- PageEditOrderComponent&#45;&gt;OrdersModule -->
<g id="edge2" class="edge">
<title>PageEditOrderComponent&#45;&gt;OrdersModule</title>
<path fill="none" stroke="black" d="M395.28,-122.11C395.28,-122.11 395.28,-140.99 395.28,-140.99"/>
<polygon fill="black" stroke="black" points="391.78,-140.99 395.28,-150.99 398.78,-140.99 391.78,-140.99"/>
</g>
<!-- PageListOrdersComponent -->
<g id="node3" class="node">
<title>PageListOrdersComponent</title>
<polygon fill="#ffffb3" stroke="black" points="358.41,-122 189.59,-122 189.59,-86 358.41,-86 358.41,-122"/>
<text text-anchor="middle" x="274" y="-99.8" font-family="Times,serif" font-size="14.00">PageListOrdersComponent</text>
</g>
<!-- PageListOrdersComponent&#45;&gt;OrdersModule -->
<g id="edge3" class="edge">
<title>PageListOrdersComponent&#45;&gt;OrdersModule</title>
<path fill="none" stroke="black" d="M337.69,-122.11C337.69,-122.11 337.69,-140.99 337.69,-140.99"/>
<polygon fill="black" stroke="black" points="334.19,-140.99 337.69,-150.99 341.19,-140.99 334.19,-140.99"/>
</g>
<!-- OrdersRoutingModule -->
<g id="node5" class="node">
<title>OrdersRoutingModule</title>
<polygon fill="#8dd3c7" stroke="black" points="166.25,-122 163.25,-126 142.25,-126 139.25,-122 23.75,-122 23.75,-86 166.25,-86 166.25,-122"/>
<text text-anchor="middle" x="95" y="-99.8" font-family="Times,serif" font-size="14.00">OrdersRoutingModule</text>
</g>
<!-- OrdersRoutingModule&#45;&gt;OrdersModule -->
<g id="edge4" class="edge">
<title>OrdersRoutingModule&#45;&gt;OrdersModule</title>
<path fill="none" stroke="black" d="M95,-122.11C95,-141.34 95,-169 95,-169 95,-169 307.24,-169 307.24,-169"/>
<polygon fill="black" stroke="black" points="307.24,-172.5 317.24,-169 307.24,-165.5 307.24,-172.5"/>
</g>
</g>
</svg>
