<?xml version="1.0" encoding="UTF-8" standalone="no"?>
<!DOCTYPE svg PUBLIC "-//W3C//DTD SVG 1.1//EN"
 "http://www.w3.org/Graphics/SVG/1.1/DTD/svg11.dtd">
<!-- Generated by graphviz version 2.44.1 (20200629.0846)
 -->
<!-- Title: dependencies Pages: 1 -->
<svg width="762pt" height="211pt"
 viewBox="0.00 0.00 762.00 211.00" xmlns="http://www.w3.org/2000/svg" xmlns:xlink="http://www.w3.org/1999/xlink">
<g id="graph0" class="graph" transform="scale(1 1) rotate(0) translate(4 207)">
<title>dependencies</title>
<polygon fill="white" stroke="transparent" points="-4,4 -4,-207 758,-207 758,4 -4,4"/>
<text text-anchor="start" x="356.01" y="-42.4" font-family="sans-serif" font-weight="bold" font-size="14.00">Legend</text>
<polygon fill="#ffffb3" stroke="transparent" points="143,-10 143,-30 163,-30 163,-10 143,-10"/>
<text text-anchor="start" x="166.63" y="-15.4" font-family="sans-serif" font-size="14.00"> &#160;Declarations</text>
<polygon fill="#8dd3c7" stroke="transparent" points="256,-10 256,-30 276,-30 276,-10 256,-10"/>
<text text-anchor="start" x="279.73" y="-15.4" font-family="sans-serif" font-size="14.00"> &#160;Module</text>
<polygon fill="#80b1d3" stroke="transparent" points="342,-10 342,-30 362,-30 362,-10 342,-10"/>
<text text-anchor="start" x="365.78" y="-15.4" font-family="sans-serif" font-size="14.00"> &#160;Bootstrap</text>
<polygon fill="#fdb462" stroke="transparent" points="439,-10 439,-30 459,-30 459,-10 439,-10"/>
<text text-anchor="start" x="462.67" y="-15.4" font-family="sans-serif" font-size="14.00"> &#160;Providers</text>
<polygon fill="#fb8072" stroke="transparent" points="535,-10 535,-30 555,-30 555,-10 535,-10"/>
<text text-anchor="start" x="558.73" y="-15.4" font-family="sans-serif" font-size="14.00"> &#160;Exports</text>
<g id="clust1" class="cluster">
<title>cluster_ClientsModule</title>
<polygon fill="none" stroke="black" stroke-dasharray="1,5" points="8,-70 8,-195 746,-195 746,-70 8,-70"/>
</g>
<g id="clust6" class="cluster">
<title>cluster_ClientsModule_imports</title>
<polygon fill="none" stroke="black" points="578,-78 578,-130 738,-130 738,-78 578,-78"/>
</g>
<g id="clust2" class="cluster">
<title>cluster_ClientsModule_declarations</title>
<polygon fill="none" stroke="black" points="16,-78 16,-130 570,-130 570,-78 16,-78"/>
</g>
<!-- PageAddClientComponent -->
<g id="node1" class="node">
<title>PageAddClientComponent</title>
<polygon fill="#ffffb3" stroke="black" points="562.37,-122 395.63,-122 395.63,-86 562.37,-86 562.37,-122"/>
<text text-anchor="middle" x="479" y="-99.8" font-family="Times,serif" font-size="14.00">PageAddClientComponent</text>
</g>
<!-- ClientsModule -->
<g id="node4" class="node">
<title>ClientsModule</title>
<polygon fill="#8dd3c7" stroke="black" points="436.72,-187 433.72,-191 412.72,-191 409.72,-187 337.28,-187 337.28,-151 436.72,-151 436.72,-187"/>
<text text-anchor="middle" x="387" y="-164.8" font-family="Times,serif" font-size="14.00">ClientsModule</text>
</g>
<!-- PageAddClientComponent&#45;&gt;ClientsModule -->
<g id="edge1" class="edge">
<title>PageAddClientComponent&#45;&gt;ClientsModule</title>
<path fill="none" stroke="black" d="M416.09,-122.11C416.09,-122.11 416.09,-140.99 416.09,-140.99"/>
<polygon fill="black" stroke="black" points="412.59,-140.99 416.09,-150.99 419.59,-140.99 412.59,-140.99"/>
</g>
<!-- PageEditClientComponent -->
<g id="node2" class="node">
<title>PageEditClientComponent</title>
<polygon fill="#ffffb3" stroke="black" points="378.1,-122 211.9,-122 211.9,-86 378.1,-86 378.1,-122"/>
<text text-anchor="middle" x="295" y="-99.8" font-family="Times,serif" font-size="14.00">PageEditClientComponent</text>
</g>
<!-- PageEditClientComponent&#45;&gt;ClientsModule -->
<g id="edge2" class="edge">
<title>PageEditClientComponent&#45;&gt;ClientsModule</title>
<path fill="none" stroke="black" d="M357.72,-122.11C357.72,-122.11 357.72,-140.99 357.72,-140.99"/>
<polygon fill="black" stroke="black" points="354.22,-140.99 357.72,-150.99 361.22,-140.99 354.22,-140.99"/>
</g>
<!-- PageListClientsComponent -->
<g id="node3" class="node">
<title>PageListClientsComponent</title>
<polygon fill="#ffffb3" stroke="black" points="193.99,-122 24.01,-122 24.01,-86 193.99,-86 193.99,-122"/>
<text text-anchor="middle" x="109" y="-99.8" font-family="Times,serif" font-size="14.00">PageListClientsComponent</text>
</g>
<!-- PageListClientsComponent&#45;&gt;ClientsModule -->
<g id="edge3" class="edge">
<title>PageListClientsComponent&#45;&gt;ClientsModule</title>
<path fill="none" stroke="black" d="M109,-122.11C109,-141.34 109,-169 109,-169 109,-169 327.3,-169 327.3,-169"/>
<polygon fill="black" stroke="black" points="327.3,-172.5 337.3,-169 327.3,-165.5 327.3,-172.5"/>
</g>
<!-- ClientsRoutingModule -->
<g id="node5" class="node">
<title>ClientsRoutingModule</title>
<polygon fill="#8dd3c7" stroke="black" points="730.34,-122 727.34,-126 706.34,-126 703.34,-122 585.66,-122 585.66,-86 730.34,-86 730.34,-122"/>
<text text-anchor="middle" x="658" y="-99.8" font-family="Times,serif" font-size="14.00">ClientsRoutingModule</text>
</g>
<!-- ClientsRoutingModule&#45;&gt;ClientsModule -->
<g id="edge4" class="edge">
<title>ClientsRoutingModule&#45;&gt;ClientsModule</title>
<path fill="none" stroke="black" d="M658,-122.11C658,-141.34 658,-169 658,-169 658,-169 446.71,-169 446.71,-169"/>
<polygon fill="black" stroke="black" points="446.71,-165.5 436.71,-169 446.71,-172.5 446.71,-165.5"/>
</g>
</g>
</svg>
