<?xml version="1.0" encoding="UTF-8" standalone="no"?>
<!DOCTYPE svg PUBLIC "-//W3C//DTD SVG 1.1//EN"
 "http://www.w3.org/Graphics/SVG/1.1/DTD/svg11.dtd">
<!-- Generated by graphviz version 2.44.1 (20200629.0846)
 -->
<!-- Title: dependencies Pages: 1 -->
<svg width="665pt" height="284pt"
 viewBox="0.00 0.00 665.00 284.00" xmlns="http://www.w3.org/2000/svg" xmlns:xlink="http://www.w3.org/1999/xlink">
<g id="graph0" class="graph" transform="scale(1 1) rotate(0) translate(4 280)">
<title>dependencies</title>
<polygon fill="white" stroke="transparent" points="-4,4 -4,-280 661,-280 661,4 -4,4"/>
<text text-anchor="start" x="307.51" y="-42.4" font-family="sans-serif" font-weight="bold" font-size="14.00">Legend</text>
<polygon fill="#ffffb3" stroke="transparent" points="94.5,-10 94.5,-30 114.5,-30 114.5,-10 94.5,-10"/>
<text text-anchor="start" x="118.13" y="-15.4" font-family="sans-serif" font-size="14.00"> &#160;Declarations</text>
<polygon fill="#8dd3c7" stroke="transparent" points="207.5,-10 207.5,-30 227.5,-30 227.5,-10 207.5,-10"/>
<text text-anchor="start" x="231.23" y="-15.4" font-family="sans-serif" font-size="14.00"> &#160;Module</text>
<polygon fill="#80b1d3" stroke="transparent" points="293.5,-10 293.5,-30 313.5,-30 313.5,-10 293.5,-10"/>
<text text-anchor="start" x="317.28" y="-15.4" font-family="sans-serif" font-size="14.00"> &#160;Bootstrap</text>
<polygon fill="#fdb462" stroke="transparent" points="390.5,-10 390.5,-30 410.5,-30 410.5,-10 390.5,-10"/>
<text text-anchor="start" x="414.17" y="-15.4" font-family="sans-serif" font-size="14.00"> &#160;Providers</text>
<polygon fill="#fb8072" stroke="transparent" points="486.5,-10 486.5,-30 506.5,-30 506.5,-10 486.5,-10"/>
<text text-anchor="start" x="510.23" y="-15.4" font-family="sans-serif" font-size="14.00"> &#160;Exports</text>
<g id="clust1" class="cluster">
<title>cluster_IconsModule</title>
<polygon fill="none" stroke="black" stroke-dasharray="1,5" points="8,-70 8,-268 649,-268 649,-70 8,-70"/>
</g>
<g id="clust2" class="cluster">
<title>cluster_IconsModule_declarations</title>
<polygon fill="none" stroke="black" points="25,-78 25,-130 635,-130 635,-78 25,-78"/>
</g>
<g id="clust8" class="cluster">
<title>cluster_IconsModule_exports</title>
<polygon fill="none" stroke="black" points="16,-208 16,-260 641,-260 641,-208 16,-208"/>
</g>
<!-- IconCloseComponent -->
<g id="node1" class="node">
<title>IconCloseComponent</title>
<polygon fill="#ffffb3" stroke="black" points="627.09,-122 488.91,-122 488.91,-86 627.09,-86 627.09,-122"/>
<text text-anchor="middle" x="558" y="-99.8" font-family="Times,serif" font-size="14.00">IconCloseComponent</text>
</g>
<!-- IconsModule -->
<g id="node5" class="node">
<title>IconsModule</title>
<polygon fill="#8dd3c7" stroke="black" points="292.87,-187 289.87,-191 268.87,-191 265.87,-187 203.13,-187 203.13,-151 292.87,-151 292.87,-187"/>
<text text-anchor="middle" x="248" y="-164.8" font-family="Times,serif" font-size="14.00">IconsModule</text>
</g>
<!-- IconCloseComponent&#45;&gt;IconsModule -->
<g id="edge1" class="edge">
<title>IconCloseComponent&#45;&gt;IconsModule</title>
<path fill="none" stroke="black" d="M581.77,-122.27C581.77,-140.56 581.77,-166 581.77,-166 581.77,-166 303.01,-166 303.01,-166"/>
<polygon fill="black" stroke="black" points="303.01,-162.5 293.01,-166 303.01,-169.5 303.01,-162.5"/>
</g>
<!-- IconDeleteComponent -->
<g id="node2" class="node">
<title>IconDeleteComponent</title>
<polygon fill="#ffffb3" stroke="black" points="471.24,-122 328.76,-122 328.76,-86 471.24,-86 471.24,-122"/>
<text text-anchor="middle" x="400" y="-99.8" font-family="Times,serif" font-size="14.00">IconDeleteComponent</text>
</g>
<!-- IconDeleteComponent&#45;&gt;IconsModule -->
<g id="edge2" class="edge">
<title>IconDeleteComponent&#45;&gt;IconsModule</title>
<path fill="none" stroke="black" d="M423.79,-122.01C423.79,-138.05 423.79,-159 423.79,-159 423.79,-159 303.27,-159 303.27,-159"/>
<polygon fill="black" stroke="black" points="303.27,-155.5 293.27,-159 303.27,-162.5 303.27,-155.5"/>
</g>
<!-- IconEditComponent -->
<g id="node3" class="node">
<title>IconEditComponent</title>
<polygon fill="#ffffb3" stroke="black" points="310.54,-122 181.46,-122 181.46,-86 310.54,-86 310.54,-122"/>
<text text-anchor="middle" x="246" y="-99.8" font-family="Times,serif" font-size="14.00">IconEditComponent</text>
</g>
<!-- IconEditComponent&#45;&gt;IconsModule -->
<g id="edge3" class="edge">
<title>IconEditComponent&#45;&gt;IconsModule</title>
<path fill="none" stroke="black" d="M248,-122.11C248,-122.11 248,-140.99 248,-140.99"/>
<polygon fill="black" stroke="black" points="244.5,-140.99 248,-150.99 251.5,-140.99 244.5,-140.99"/>
</g>
<!-- IconNavComponent -->
<g id="node4" class="node">
<title>IconNavComponent</title>
<polygon fill="#ffffb3" stroke="black" points="162.53,-122 33.47,-122 33.47,-86 162.53,-86 162.53,-122"/>
<text text-anchor="middle" x="98" y="-99.8" font-family="Times,serif" font-size="14.00">IconNavComponent</text>
</g>
<!-- IconNavComponent&#45;&gt;IconsModule -->
<g id="edge4" class="edge">
<title>IconNavComponent&#45;&gt;IconsModule</title>
<path fill="none" stroke="black" d="M116.09,-122.02C116.09,-139.37 116.09,-163 116.09,-163 116.09,-163 192.97,-163 192.97,-163"/>
<polygon fill="black" stroke="black" points="192.97,-166.5 202.97,-163 192.97,-159.5 192.97,-166.5"/>
</g>
<!-- IconCloseComponent  -->
<g id="node6" class="node">
<title>IconCloseComponent </title>
<polygon fill="#fb8072" stroke="black" points="632.59,-252 491.41,-252 491.41,-216 632.59,-216 632.59,-252"/>
<text text-anchor="middle" x="562" y="-229.8" font-family="Times,serif" font-size="14.00">IconCloseComponent </text>
</g>
<!-- IconsModule&#45;&gt;IconCloseComponent  -->
<g id="edge5" class="edge">
<title>IconsModule&#45;&gt;IconCloseComponent </title>
<path fill="none" stroke="black" stroke-dasharray="5,2" d="M293.08,-173C374.21,-173 536.48,-173 536.48,-173 536.48,-173 536.48,-205.7 536.48,-205.7"/>
<polygon fill="black" stroke="black" points="532.98,-205.7 536.48,-215.7 539.98,-205.7 532.98,-205.7"/>
</g>
<!-- IconDeleteComponent  -->
<g id="node7" class="node">
<title>IconDeleteComponent </title>
<polygon fill="#fb8072" stroke="black" points="473.24,-252 326.76,-252 326.76,-216 473.24,-216 473.24,-252"/>
<text text-anchor="middle" x="400" y="-229.8" font-family="Times,serif" font-size="14.00">IconDeleteComponent </text>
</g>
<!-- IconsModule&#45;&gt;IconDeleteComponent  -->
<g id="edge6" class="edge">
<title>IconsModule&#45;&gt;IconDeleteComponent </title>
<path fill="none" stroke="black" stroke-dasharray="5,2" d="M293.2,-180C330.11,-180 376.21,-180 376.21,-180 376.21,-180 376.21,-205.72 376.21,-205.72"/>
<polygon fill="black" stroke="black" points="372.71,-205.72 376.21,-215.72 379.71,-205.72 372.71,-205.72"/>
</g>
<!-- IconEditComponent  -->
<g id="node8" class="node">
<title>IconEditComponent </title>
<polygon fill="#fb8072" stroke="black" points="308.54,-252 175.46,-252 175.46,-216 308.54,-216 308.54,-252"/>
<text text-anchor="middle" x="242" y="-229.8" font-family="Times,serif" font-size="14.00">IconEditComponent </text>
</g>
<!-- IconsModule&#45;&gt;IconEditComponent  -->
<g id="edge7" class="edge">
<title>IconsModule&#45;&gt;IconEditComponent </title>
<path fill="none" stroke="black" stroke-dasharray="5,2" d="M248,-187.11C248,-187.11 248,-205.99 248,-205.99"/>
<polygon fill="black" stroke="black" points="244.5,-205.99 248,-215.99 251.5,-205.99 244.5,-205.99"/>
</g>
<!-- IconNavComponent  -->
<g id="node9" class="node">
<title>IconNavComponent </title>
<polygon fill="#fb8072" stroke="black" points="157.53,-252 24.47,-252 24.47,-216 157.53,-216 157.53,-252"/>
<text text-anchor="middle" x="91" y="-229.8" font-family="Times,serif" font-size="14.00">IconNavComponent </text>
</g>
<!-- IconsModule&#45;&gt;IconNavComponent  -->
<g id="edge8" class="edge">
<title>IconsModule&#45;&gt;IconNavComponent </title>
<path fill="none" stroke="black" stroke-dasharray="5,2" d="M202.91,-175C151.55,-175 74.66,-175 74.66,-175 74.66,-175 74.66,-205.98 74.66,-205.98"/>
<polygon fill="black" stroke="black" points="71.16,-205.98 74.66,-215.98 78.16,-205.98 71.16,-205.98"/>
</g>
</g>
</svg>
